name analog
datacolumns 19
datarows 52
range 0.47700000000000004 0.5025000000000001
endheader
time	ground_force_vx	ground_force_vy	ground_force_vz	ground_force_px	ground_force_py	ground_force_pz	l_ground_force_vx	l_ground_force_vy	l_ground_force_vz	l_ground_force_px	l_ground_force_py	l_ground_force_pz	ground_torque_x	ground_torque_y	ground_torque_z	l_ground_torque_x	l_ground_torque_y	l_ground_torque_z
0.47700000000000004	-0.0	-0.0	-0.0	-0.0	-0.0	-0.0	-6.874123573303223	7.152140140533447	-515.9607543945312	-0.0	-0.0	-0.0	-0.0	-0.0	-0.0	168973.953125	-28722.466796875	-4512.00634765625
0.47750000000000004	-0.0	-0.0	-0.0	-0.0	-0.0	-0.0	-7.0751051902771	6.5141425132751465	-514.6495361328125	-0.0	-0.0	-0.0	-0.0	-0.0	-0.0	168744.421875	-28779.162109375	-4564.92529296875
0.47800000000000004	-0.0	-0.0	-0.0	-0.0	-0.0	-0.0	-6.89623498916626	5.827866077423096	-514.123046875	-0.0	-0.0	-0.0	-0.0	-0.0	-0.0	168767.984375	-28755.13671875	-4422.90771484375
0.47850000000000004	-0.0	-0.0	-0.0	-0.0	-0.0	-0.0	-6.186760425567627	5.189169883728027	-513.6063232421875	-0.0	-0.0	-0.0	-0.0	-0.0	-0.0	168389.484375	-29020.548828125	-4245.0400390625
0.47900000000000004	-0.0	-0.0	-0.0	-0.0	-0.0	-0.0	-5.744234561920166	4.57169771194458	-513.0800170898438	-0.0	-0.0	-0.0	-0.0	-0.0	-0.0	168340.15625	-28997.51953125	-4385.8564453125
0.47950000000000004	-0.0	-0.0	-0.0	-0.0	-0.0	-0.0	-4.967268466949463	3.775885343551636	-512.552490234375	-0.0	-0.0	-0.0	-0.0	-0.0	-0.0	168581.90625	-29113.8984375	-4340.89453125
0.48	-0.0	-0.0	-0.0	-0.0	-0.0	-0.0	-4.590563774108887	3.091259002685547	-512.6427001953125	-0.0	-0.0	-0.0	-0.0	-0.0	-0.0	168669.4375	-29529.591796875	-4400.05126953125
0.4805	-0.0	-0.0	-0.0	-0.0	-0.0	-0.0	-4.125053405761719	2.428844451904297	-512.292724609375	-0.0	-0.0	-0.0	-0.0	-0.0	-0.0	169333.0	-29794.900390625	-4370.34521484375
0.481	-0.0	-0.0	-0.0	-0.0	-0.0	-0.0	-3.0381205081939697	2.2526488304138184	-512.9036865234375	-0.0	-0.0	-0.0	-0.0	-0.0	-0.0	169409.484375	-30141.9453125	-4540.18701171875
0.4815	-0.0	-0.0	-0.0	-0.0	-0.0	-0.0	-1.5967941284179688	2.34079647064209	-512.2910766601562	-0.0	-0.0	-0.0	-0.0	-0.0	-0.0	169965.015625	-30803.73046875	-4494.369140625
0.482	-0.0	-0.0	-0.0	-0.0	-0.0	-0.0	0.065464973449707	2.8914718627929688	-511.3308715820313	-0.0	-0.0	-0.0	-0.0	-0.0	-0.0	170115.890625	-31206.087890625	-4300.5048828125
0.4825	-0.0	-0.0	-0.0	-0.0	-0.0	-0.0	1.9505386352539065	3.3338701725006104	-510.0307922363281	-0.0	-0.0	-0.0	-0.0	-0.0	-0.0	170238.578125	-31815.48828125	-4061.739501953125
0.483	-0.0	-0.0	-0.0	-0.0	-0.0	-0.0	4.124361038208008	4.061422348022461	-510.0164184570313	-0.0	-0.0	-0.0	-0.0	-0.0	-0.0	170346.09375	-32958.5	-3719.10302734375
0.4835	-0.0	-0.0	-0.0	-0.0	-0.0	-0.0	6.164554595947266	5.938371181488037	-510.1105346679688	-0.0	-0.0	-0.0	-0.0	-0.0	-0.0	171167.6875	-33588.84375	-3360.693359375
0.484	-0.0	-0.0	-0.0	-0.0	-0.0	-0.0	7.959375381469727	8.057909965515137	-511.3363342285156	-0.0	-0.0	-0.0	-0.0	-0.0	-0.0	171644.15625	-34479.40625	-2795.86767578125
0.4845	-0.0	-0.0	-0.0	-0.0	-0.0	-0.0	10.090295791625977	8.743846893310547	-511.31939697265625	-0.0	-0.0	-0.0	-0.0	-0.0	-0.0	171770.234375	-34797.234375	-1897.44677734375
0.485	-0.0	-0.0	-0.0	-0.0	-0.0	-0.0	11.53240203857422	9.871833801269531	-509.3224487304688	-0.0	-0.0	-0.0	-0.0	-0.0	-0.0	171625.0625	-35008.859375	-1391.127685546875
0.4855	-0.0	-0.0	-0.0	-0.0	-0.0	-0.0	11.512304306030272	10.06867218017578	-507.9255981445313	-0.0	-0.0	-0.0	-0.0	-0.0	-0.0	171300.03125	-35169.84375	-1138.5047607421875
0.486	-0.0	-0.0	-0.0	-0.0	-0.0	-0.0	10.645294189453123	10.428095817565918	-504.8071899414063	-0.0	-0.0	-0.0	-0.0	-0.0	-0.0	170996.734375	-35347.8984375	-1213.6796875
0.4865	-0.0	-0.0	-0.0	-0.0	-0.0	-0.0	9.823878288269045	11.32474422454834	-504.6788330078125	-0.0	-0.0	-0.0	-0.0	-0.0	-0.0	170585.109375	-35063.64453125	-1481.035888671875
0.487	-0.0	-0.0	-0.0	-0.0	-0.0	-0.0	8.801838874816895	12.51870059967041	-502.8833923339844	-0.0	-0.0	-0.0	-0.0	-0.0	-0.0	170480.765625	-34913.65625	-1753.7606201171875
0.4875	-0.0	-0.0	-0.0	-0.0	-0.0	-0.0	8.00712776184082	13.40574073791504	-503.2943420410156	-0.0	-0.0	-0.0	-0.0	-0.0	-0.0	170649.890625	-34494.640625	-1950.036865234375
0.488	-0.0	-0.0	-0.0	-0.0	-0.0	-0.0	6.961715698242188	14.568934440612791	-505.0396423339844	-0.0	-0.0	-0.0	-0.0	-0.0	-0.0	170982.828125	-34521.67578125	-2214.759521484375
0.4885	-0.0	-0.0	-0.0	-0.0	-0.0	-0.0	5.01883602142334	15.289545059204102	-505.3706970214844	-0.0	-0.0	-0.0	-0.0	-0.0	-0.0	171634.703125	-34173.125	-2610.770751953125
0.489	-0.0	-0.0	-0.0	-0.0	-0.0	-0.0	3.151609420776367	15.079745292663574	-506.5270385742188	-0.0	-0.0	-0.0	-0.0	-0.0	-0.0	171831.171875	-33642.12109375	-3241.345947265625
0.4895	-0.0	-0.0	-0.0	-0.0	-0.0	-0.0	1.2185238599777222	14.024799346923828	-506.7112121582031	-0.0	-0.0	-0.0	-0.0	-0.0	-0.0	172386.609375	-33210.13671875	-3836.228515625
0.49	-0.0	-0.0	-0.0	-0.0	-0.0	-0.0	-0.6861820220947266	12.811927795410156	-509.3913269042969	-0.0	-0.0	-0.0	-0.0	-0.0	-0.0	172552.765625	-32760.453125	-4158.05908203125
0.4905	-0.0	-0.0	-0.0	-0.0	-0.0	-0.0	-2.726459503173828	11.593612670898438	-509.7613525390625	-0.0	-0.0	-0.0	-0.0	-0.0	-0.0	172919.546875	-32147.8125	-4715.57666015625
0.491	-0.0	-0.0	-0.0	-0.0	-0.0	-0.0	-4.737277984619141	10.239508628845217	-511.0879211425781	-0.0	-0.0	-0.0	-0.0	-0.0	-0.0	173338.78125	-31564.462890625	-5144.5537109375
0.4915	-0.0	-0.0	-0.0	-0.0	-0.0	-0.0	-5.807485580444336	9.209064483642578	-513.7402954101562	-0.0	-0.0	-0.0	-0.0	-0.0	-0.0	174070.84375	-31312.783203125	-5554.84228515625
0.492	-0.0	-0.0	-0.0	-0.0	-0.0	-0.0	-6.783182144165039	8.631855010986328	-515.2793579101562	-0.0	-0.0	-0.0	-0.0	-0.0	-0.0	174557.59375	-31137.83984375	-5619.22021484375
0.4925	-0.0	-0.0	-0.0	-0.0	-0.0	-0.0	-6.919441223144531	8.118949890136719	-516.4891357421875	-0.0	-0.0	-0.0	-0.0	-0.0	-0.0	175440.265625	-31098.345703125	-5749.70849609375
0.493	-0.0	-0.0	-0.0	-0.0	-0.0	-0.0	-6.670254230499268	7.0319929122924805	-519.4434814453125	-0.0	-0.0	-0.0	-0.0	-0.0	-0.0	176066.125	-31327.66796875	-5757.78173828125
0.4935	-0.0	-0.0	-0.0	-0.0	-0.0	-0.0	-5.869353771209717	6.440293788909912	-523.000732421875	-0.0	-0.0	-0.0	-0.0	-0.0	-0.0	176947.171875	-31302.857421875	-5571.3583984375
0.494	-0.0	-0.0	-0.0	-0.0	-0.0	-0.0	-4.47613000869751	5.95796537399292	-523.9522705078125	-0.0	-0.0	-0.0	-0.0	-0.0	-0.0	177749.0625	-31844.908203125	-5208.96826171875
0.4945	-0.0	-0.0	-0.0	-0.0	-0.0	-0.0	-3.3546910285949707	5.122657775878906	-525.758056640625	-0.0	-0.0	-0.0	-0.0	-0.0	-0.0	178433.09375	-32205.375	-4844.39208984375
0.495	-0.0	-0.0	-0.0	-0.0	-0.0	-0.0	-2.467766046524048	4.9620795249938965	-526.6793212890625	-0.0	-0.0	-0.0	-0.0	-0.0	-0.0	178886.640625	-32605.572265625	-4636.17431640625
0.4955	-0.0	-0.0	-0.0	-0.0	-0.0	-0.0	-2.306480407714844	4.736881256103516	-527.7921142578125	-0.0	-0.0	-0.0	-0.0	-0.0	-0.0	179493.890625	-32855.84375	-4565.90283203125
0.496	-0.0	-0.0	-0.0	-0.0	-0.0	-0.0	-2.337923765182495	5.146880626678467	-530.4570922851562	-0.0	-0.0	-0.0	-0.0	-0.0	-0.0	180403.609375	-33311.2734375	-4657.609375
0.4965	-0.0	-0.0	-0.0	-0.0	-0.0	-0.0	-2.073647737503052	5.29044246673584	-531.312744140625	-0.0	-0.0	-0.0	-0.0	-0.0	-0.0	180942.640625	-33693.43359375	-4606.216796875
0.497	-0.0	-0.0	-0.0	-0.0	-0.0	-0.0	-1.5875951051712036	5.186609268188477	-534.2020263671875	-0.0	-0.0	-0.0	-0.0	-0.0	-0.0	181219.125	-34273.71875	-4366.57763671875
0.4975	-0.0	-0.0	-0.0	-0.0	-0.0	-0.0	-0.3397485911846161	5.122657775878906	-535.5986328125	-0.0	-0.0	-0.0	-0.0	-0.0	-0.0	181615.328125	-34675.9296875	-3927.8466796875
0.498	-0.0	-0.0	-0.0	-0.0	-0.0	-0.0	0.6850703954696655	5.196181774139404	-535.9861450195312	-0.0	-0.0	-0.0	-0.0	-0.0	-0.0	181923.4375	-35278.75390625	-3564.400146484375
0.4985	-0.0	-0.0	-0.0	-0.0	-0.0	-0.0	0.9611676335334778	5.235557556152344	-537.6934814453125	-0.0	-0.0	-0.0	-0.0	-0.0	-0.0	182769.859375	-35734.91796875	-3226.467529296875
0.499	-0.0	-0.0	-0.0	-0.0	-0.0	-0.0	1.217203140258789	4.921375274658203	-538.197021484375	-0.0	-0.0	-0.0	-0.0	-0.0	-0.0	182959.734375	-36195.578125	-3010.503173828125
0.4995	-0.0	-0.0	-0.0	-0.0	-0.0	-0.0	1.674915790557861	4.829345703125	-539.9838256835938	-0.0	-0.0	-0.0	-0.0	-0.0	-0.0	183069.0	-36267.4375	-2926.020751953125
0.5	-0.0	-0.0	-0.0	-0.0	-0.0	-0.0	1.5221359729766846	4.832915782928467	-541.18505859375	-0.0	-0.0	-0.0	-0.0	-0.0	-0.0	183267.765625	-36685.09765625	-2684.096923828125
0.5005000000000001	-0.0	-0.0	-0.0	-0.0	-0.0	-0.0	1.4969596862792969	3.963400840759277	-540.93408203125	-0.0	-0.0	-0.0	-0.0	-0.0	-0.0	183532.3125	-36635.578125	-2562.914794921875
0.501	-0.0	-0.0	-0.0	-0.0	-0.0	-0.0	0.4435539245605469	2.8896913528442383	-541.8297729492188	-0.0	-0.0	-0.0	-0.0	-0.0	-0.0	183687.21875	-36444.59765625	-2562.979736328125
0.5015000000000001	-0.0	-0.0	-0.0	-0.0	-0.0	-0.0	-0.2912284135818481	1.868119239807129	-542.1865844726562	-0.0	-0.0	-0.0	-0.0	-0.0	-0.0	183584.578125	-35961.625	-2550.840087890625
0.502	-0.0	-0.0	-0.0	-0.0	-0.0	-0.0	-1.1292762756347656	0.8700835108757019	-541.0859375	-0.0	-0.0	-0.0	-0.0	-0.0	-0.0	183081.109375	-35850.2890625	-2801.42626953125
0.5025000000000001	-0.0	-0.0	-0.0	-0.0	-0.0	-0.0	-1.8881702423095703	-0.2649650573730469	-539.6862182617188	-0.0	-0.0	-0.0	-0.0	-0.0	-0.0	183039.5	-35560.21875	-2806.71240234375
